# 3ds Max Wavefront OBJ Exporter v0.97b - (c)2007 guruware
# File Created: 19.05.2020 17:42:35

mtllib Colchoneta_2.mtl

#
# object Colchoneta
#

v  18.4698 44.5933 -22.6679
v  18.4698 44.5933 -25.4977
v  21.0375 44.5933 -25.4977
v  21.0375 44.5933 -22.6679
v  23.6053 44.5933 -25.4977
v  23.6053 44.5933 -22.6679
v  26.1731 44.5933 -25.4977
v  26.1731 44.5933 -22.6679
v  28.7409 44.5933 -25.4977
v  28.7409 44.5933 -22.6679
v  18.4698 44.5933 -28.3275
v  21.0375 44.5933 -28.3275
v  23.6053 44.5933 -28.3275
v  26.1731 44.5933 -28.3275
v  28.7409 44.5933 -28.3275
v  18.4698 44.5933 -31.1572
v  21.0375 44.5933 -31.1572
v  23.6053 44.5933 -31.1572
v  26.1731 44.5933 -31.1572
v  28.7409 44.5933 -31.1572
v  18.4698 44.5933 -33.9870
v  21.0375 44.5933 -33.9870
v  23.6053 44.5933 -33.9870
v  26.1731 44.5933 -33.9870
v  28.7409 44.5933 -33.9870
v  18.4698 45.6116 -22.6679
v  21.0375 45.6116 -22.6679
v  21.0375 45.6116 -25.4977
v  18.4698 45.6116 -25.4977
v  23.6053 45.6116 -22.6679
v  23.6053 45.6116 -25.4977
v  26.1731 45.6116 -22.6679
v  26.1731 45.6116 -25.4977
v  28.7409 45.6116 -22.6679
v  28.7409 45.6116 -25.4977
v  21.0375 45.6116 -28.3275
v  18.4698 45.6116 -28.3275
v  23.6053 45.6116 -28.3275
v  26.1731 45.6116 -28.3275
v  28.7409 45.6116 -28.3275
v  21.0375 45.6116 -31.1572
v  18.4698 45.6116 -31.1572
v  23.6053 45.6116 -31.1572
v  26.1731 45.6116 -31.1572
v  28.7409 45.6116 -31.1572
v  21.0375 45.6116 -33.9870
v  18.4698 45.6116 -33.9870
v  23.6053 45.6116 -33.9870
v  26.1731 45.6116 -33.9870
v  28.7409 45.6116 -33.9870
# 50 vertices

vn -0.5774 -0.5774 0.5774
vn -0.7071 -0.7071 -0.0000
vn 0.0000 -1.0000 -0.0000
vn 0.0000 -0.7071 0.7071
vn 0.7071 -0.7071 -0.0000
vn 0.5774 -0.5774 0.5774
vn -0.5774 -0.5774 -0.5774
vn 0.0000 -0.7071 -0.7071
vn 0.5774 -0.5774 -0.5774
vn -0.5774 0.5774 0.5774
vn 0.0000 0.7071 0.7071
vn 0.0000 1.0000 -0.0000
vn -0.7071 0.7071 -0.0000
vn 0.5774 0.5774 0.5774
vn 0.7071 0.7071 -0.0000
vn 0.0000 0.7071 -0.7071
vn -0.5774 0.5774 -0.5774
vn 0.5774 0.5774 -0.5774
# 18 vertex normals

vt 1.0000 0.0000 0.0000
vt 1.0000 0.2500 0.0000
vt 0.7500 0.2500 0.0000
vt 0.7500 0.0000 0.0000
vt 0.5000 0.2500 0.0000
vt 0.5000 0.0000 0.0000
vt 0.2500 0.2500 0.0000
vt 0.2500 0.0000 0.0000
vt 0.0000 0.2500 0.0000
vt 0.0000 0.0000 0.0000
vt 1.0000 0.5000 0.0000
vt 0.7500 0.5000 0.0000
vt 0.5000 0.5000 0.0000
vt 0.2500 0.5000 0.0000
vt 0.0000 0.5000 0.0000
vt 1.0000 0.7500 0.0000
vt 0.7500 0.7500 0.0000
vt 0.5000 0.7500 0.0000
vt 0.2500 0.7500 0.0000
vt 0.0000 0.7500 0.0000
vt 1.0000 1.0000 0.0000
vt 0.7500 1.0000 0.0000
vt 0.5000 1.0000 0.0000
vt 0.2500 1.0000 0.0000
vt 0.0000 1.0000 0.0000
# 25 texture coords

o Colchoneta
g Colchoneta
usemtl 24___Default
s 2
f 1/1/1 2/2/2 3/3/3 4/4/4 
f 4/4/4 3/3/3 5/5/3 6/6/4 
f 6/6/4 5/5/3 7/7/3 8/8/4 
f 8/8/4 7/7/3 9/9/5 10/10/6 
f 2/2/2 11/11/2 12/12/3 3/3/3 
f 3/3/3 12/12/3 13/13/3 5/5/3 
f 5/5/3 13/13/3 14/14/3 7/7/3 
f 7/7/3 14/14/3 15/15/5 9/9/5 
f 11/11/2 16/16/2 17/17/3 12/12/3 
f 12/12/3 17/17/3 18/18/3 13/13/3 
f 13/13/3 18/18/3 19/19/3 14/14/3 
f 14/14/3 19/19/3 20/20/5 15/15/5 
f 16/16/2 21/21/7 22/22/8 17/17/3 
f 17/17/3 22/22/8 23/23/8 18/18/3 
f 18/18/3 23/23/8 24/24/8 19/19/3 
f 19/19/3 24/24/8 25/25/9 20/20/5 
s 4
f 26/10/10 27/8/11 28/7/12 29/9/13 
f 27/8/11 30/6/11 31/5/12 28/7/12 
f 30/6/11 32/4/11 33/3/12 31/5/12 
f 32/4/11 34/1/14 35/2/15 33/3/12 
f 29/9/13 28/7/12 36/14/12 37/15/13 
f 28/7/12 31/5/12 38/13/12 36/14/12 
f 31/5/12 33/3/12 39/12/12 38/13/12 
f 33/3/12 35/2/15 40/11/15 39/12/12 
f 37/15/13 36/14/12 41/19/12 42/20/13 
f 36/14/12 38/13/12 43/18/12 41/19/12 
f 38/13/12 39/12/12 44/17/12 43/18/12 
f 39/12/12 40/11/15 45/16/15 44/17/12 
f 42/20/13 41/19/12 46/24/16 47/25/17 
f 41/19/12 43/18/12 48/23/16 46/24/16 
f 43/18/12 44/17/12 49/22/16 48/23/16 
f 44/17/12 45/16/15 50/21/18 49/22/16 
s 8
f 1/10/1 4/8/4 27/24/11 26/25/10 
f 4/8/4 6/6/4 30/23/11 27/24/11 
f 6/6/4 8/4/4 32/22/11 30/23/11 
f 8/4/4 10/1/6 34/21/14 32/22/11 
s 16
f 10/10/6 9/8/5 35/24/15 34/25/14 
f 9/8/5 15/6/5 40/23/15 35/24/15 
f 15/6/5 20/4/5 45/22/15 40/23/15 
f 20/4/5 25/1/9 50/21/18 45/22/15 
s 32
f 25/10/9 24/8/8 49/24/16 50/25/18 
f 24/8/8 23/6/8 48/23/16 49/24/16 
f 23/6/8 22/4/8 46/22/16 48/23/16 
f 22/4/8 21/1/7 47/21/17 46/22/16 
s 64
f 21/10/7 16/8/2 42/24/13 47/25/17 
f 16/8/2 11/6/2 37/23/13 42/24/13 
f 11/6/2 2/4/2 29/22/13 37/23/13 
f 2/4/2 1/1/1 26/21/10 29/22/13 
# 48 polygons

