# 3ds Max Wavefront OBJ Exporter v0.97b - (c)2007 guruware
# File Created: 10.05.2020 23:10:16

mtllib SacoDeBoxeo.mtl

#
# object Saco
#

v  73.7322 39.3471 -25.6617
v  74.2154 39.3798 -25.8376
v  74.2464 39.3798 -25.6617
v  74.1261 39.3798 -25.9922
v  73.9893 39.3798 -26.1070
v  73.8215 39.3798 -26.1681
v  73.6429 39.3798 -26.1681
v  73.4751 39.3798 -26.1070
v  73.3383 39.3798 -25.9922
v  73.2490 39.3798 -25.8376
v  73.2180 39.3798 -25.6617
v  73.2490 39.3798 -25.4858
v  73.3383 39.3798 -25.3312
v  73.4751 39.3798 -25.2164
v  73.6429 39.3798 -25.1553
v  73.8215 39.3798 -25.1553
v  73.9893 39.3798 -25.2164
v  74.1261 39.3798 -25.3312
v  74.2154 39.3798 -25.4858
v  74.6985 39.4976 -26.0134
v  74.7606 39.4976 -25.6617
v  74.5200 39.4976 -26.3227
v  74.2464 39.4976 -26.5523
v  73.9108 39.4976 -26.6744
v  73.5536 39.4976 -26.6744
v  73.2180 39.4976 -26.5523
v  72.9444 39.4976 -26.3227
v  72.7658 39.4976 -26.0134
v  72.7038 39.4976 -25.6617
v  72.7658 39.4976 -25.3100
v  72.9444 39.4976 -25.0007
v  73.2180 39.4976 -24.7711
v  73.5536 39.4976 -24.6489
v  73.9108 39.4976 -24.6489
v  74.2464 39.4976 -24.7711
v  74.5200 39.4976 -25.0007
v  74.6985 39.4976 -25.3100
v  74.6985 40.9611 -26.0134
v  74.7606 40.9611 -25.6617
v  74.5200 40.9611 -26.3227
v  74.2464 40.9611 -26.5523
v  73.9108 40.9611 -26.6744
v  73.5536 40.9611 -26.6744
v  73.2180 40.9611 -26.5523
v  72.9444 40.9611 -26.3227
v  72.7658 40.9611 -26.0134
v  72.7038 40.9611 -25.6617
v  72.7658 40.9611 -25.3100
v  72.9444 40.9611 -25.0007
v  73.2180 40.9611 -24.7711
v  73.5536 40.9611 -24.6489
v  73.9108 40.9611 -24.6489
v  74.2464 40.9611 -24.7711
v  74.5200 40.9611 -25.0007
v  74.6985 40.9611 -25.3100
v  74.6985 42.4245 -26.0134
v  74.7606 42.4245 -25.6617
v  74.5200 42.4245 -26.3227
v  74.2464 42.4245 -26.5523
v  73.9108 42.4245 -26.6744
v  73.5536 42.4245 -26.6744
v  73.2180 42.4245 -26.5523
v  72.9444 42.4245 -26.3227
v  72.7658 42.4245 -26.0134
v  72.7038 42.4245 -25.6617
v  72.7658 42.4245 -25.3100
v  72.9444 42.4245 -25.0007
v  73.2180 42.4245 -24.7711
v  73.5536 42.4245 -24.6489
v  73.9108 42.4245 -24.6489
v  74.2464 42.4245 -24.7711
v  74.5200 42.4245 -25.0007
v  74.6985 42.4245 -25.3100
v  74.6985 43.8880 -26.0134
v  74.7606 43.8880 -25.6617
v  74.5200 43.8880 -26.3227
v  74.2464 43.8880 -26.5523
v  73.9108 43.8880 -26.6744
v  73.5536 43.8880 -26.6744
v  73.2180 43.8880 -26.5523
v  72.9444 43.8880 -26.3227
v  72.7658 43.8880 -26.0134
v  72.7038 43.8880 -25.6617
v  72.7658 43.8880 -25.3100
v  72.9444 43.8880 -25.0007
v  73.2180 43.8880 -24.7711
v  73.5536 43.8880 -24.6489
v  73.9108 43.8880 -24.6489
v  74.2464 43.8880 -24.7711
v  74.5200 43.8880 -25.0007
v  74.6985 43.8880 -25.3100
v  74.6985 45.3514 -26.0134
v  74.7606 45.3514 -25.6617
v  74.5200 45.3514 -26.3227
v  74.2464 45.3514 -26.5523
v  73.9108 45.3514 -26.6744
v  73.5536 45.3514 -26.6744
v  73.2180 45.3514 -26.5523
v  72.9444 45.3514 -26.3227
v  72.7658 45.3514 -26.0134
v  72.7038 45.3514 -25.6617
v  72.7658 45.3514 -25.3100
v  72.9444 45.3514 -25.0007
v  73.2180 45.3514 -24.7711
v  73.5536 45.3514 -24.6489
v  73.9108 45.3514 -24.6489
v  74.2464 45.3514 -24.7711
v  74.5200 45.3514 -25.0007
v  74.6985 45.3514 -25.3100
v  74.6985 46.8149 -26.0134
v  74.7606 46.8149 -25.6617
v  74.5200 46.8149 -26.3227
v  74.2464 46.8149 -26.5523
v  73.9108 46.8149 -26.6744
v  73.5536 46.8149 -26.6744
v  73.2180 46.8149 -26.5523
v  72.9444 46.8149 -26.3227
v  72.7658 46.8149 -26.0134
v  72.7038 46.8149 -25.6617
v  72.7658 46.8149 -25.3100
v  72.9444 46.8149 -25.0007
v  73.2180 46.8149 -24.7711
v  73.5536 46.8149 -24.6489
v  73.9108 46.8149 -24.6489
v  74.2464 46.8149 -24.7711
v  74.5200 46.8149 -25.0007
v  74.6985 46.8149 -25.3100
v  74.2154 46.9568 -25.8376
v  74.2464 46.9568 -25.6617
v  74.1261 46.9568 -25.9922
v  73.9893 46.9568 -26.1070
v  73.8215 46.9568 -26.1681
v  73.6429 46.9568 -26.1681
v  73.4751 46.9568 -26.1070
v  73.3383 46.9568 -25.9922
v  73.2490 46.9568 -25.8376
v  73.2180 46.9568 -25.6617
v  73.2490 46.9568 -25.4858
v  73.3383 46.9568 -25.3312
v  73.4751 46.9568 -25.2164
v  73.6429 46.9568 -25.1553
v  73.8215 46.9568 -25.1553
v  73.9893 46.9568 -25.2164
v  74.1261 46.9568 -25.3312
v  74.2154 46.9568 -25.4858
v  73.7322 47.0378 -25.6617
# 146 vertices

vn 0.0000 -1.0000 0.0000
vn 0.1435 -0.9883 -0.0522
vn 0.1527 -0.9883 0.0000
vn 0.1170 -0.9883 -0.0982
vn 0.0764 -0.9883 -0.1322
vn 0.0265 -0.9883 -0.1504
vn -0.0265 -0.9883 -0.1504
vn -0.0764 -0.9883 -0.1322
vn -0.1170 -0.9883 -0.0982
vn -0.1435 -0.9883 -0.0522
vn -0.1527 -0.9883 -0.0000
vn -0.1435 -0.9883 0.0522
vn -0.1170 -0.9883 0.0982
vn -0.0764 -0.9883 0.1322
vn -0.0265 -0.9883 0.1504
vn 0.0265 -0.9883 0.1504
vn 0.0764 -0.9883 0.1322
vn 0.1170 -0.9883 0.0982
vn 0.1435 -0.9883 0.0522
vn 0.7576 -0.5916 -0.2758
vn 0.8062 -0.5916 0.0000
vn 0.6176 -0.5916 -0.5182
vn 0.4031 -0.5916 -0.6983
vn 0.1400 -0.5915 -0.7940
vn -0.1400 -0.5915 -0.7940
vn -0.4031 -0.5915 -0.6983
vn -0.6177 -0.5915 -0.5183
vn -0.7576 -0.5916 -0.2758
vn -0.8063 -0.5916 0.0000
vn -0.7577 -0.5915 0.2758
vn -0.6177 -0.5915 0.5183
vn -0.4031 -0.5915 0.6983
vn -0.1400 -0.5915 0.7940
vn 0.1400 -0.5916 0.7940
vn 0.4031 -0.5916 0.6982
vn 0.6176 -0.5916 0.5183
vn 0.7576 -0.5916 0.2758
vn 0.9397 0.0000 -0.3420
vn 1.0000 0.0000 0.0000
vn 0.7660 0.0000 -0.6428
vn 0.5000 0.0000 -0.8660
vn 0.1736 0.0000 -0.9848
vn -0.1736 0.0000 -0.9848
vn -0.5000 0.0000 -0.8660
vn -0.7660 0.0000 -0.6428
vn -0.9397 0.0000 -0.3420
vn -1.0000 0.0000 0.0000
vn -0.9397 0.0000 0.3420
vn -0.7660 0.0000 0.6428
vn -0.5000 0.0000 0.8660
vn -0.1736 0.0000 0.9848
vn 0.1736 0.0000 0.9848
vn 0.5000 0.0000 0.8660
vn 0.7660 0.0000 0.6428
vn 0.9397 0.0000 0.3420
vn 0.7685 0.5754 -0.2797
vn 0.8178 0.5754 0.0000
vn 0.6265 0.5754 -0.5257
vn 0.4089 0.5754 -0.7083
vn 0.1420 0.5754 -0.8055
vn -0.1420 0.5754 -0.8055
vn -0.4089 0.5754 -0.7083
vn -0.6265 0.5754 -0.5257
vn -0.7685 0.5754 -0.2797
vn -0.8179 0.5754 0.0000
vn -0.7686 0.5754 0.2797
vn -0.6265 0.5754 0.5257
vn -0.4089 0.5754 0.7083
vn -0.1420 0.5754 0.8055
vn 0.1420 0.5754 0.8054
vn 0.4089 0.5754 0.7083
vn 0.6265 0.5754 0.5257
vn 0.7685 0.5754 0.2797
vn 0.2040 0.9761 -0.0743
vn 0.2171 0.9761 0.0000
vn 0.1663 0.9761 -0.1396
vn 0.1086 0.9761 -0.1880
vn 0.0377 0.9761 -0.2138
vn -0.0377 0.9761 -0.2138
vn -0.1086 0.9761 -0.1880
vn -0.1663 0.9761 -0.1396
vn -0.2040 0.9761 -0.0743
vn -0.2171 0.9761 -0.0000
vn -0.2040 0.9761 0.0743
vn -0.1663 0.9761 0.1396
vn -0.1086 0.9761 0.1880
vn -0.0377 0.9761 0.2138
vn 0.0377 0.9761 0.2138
vn 0.1086 0.9761 0.1880
vn 0.1663 0.9761 0.1396
vn 0.2040 0.9761 0.0743
vn -0.0000 1.0000 -0.0000
# 92 vertex normals

vt 0.5000 0.0000 0.0000
vt 0.8056 0.0000 0.5000
vt 0.7500 0.0000 0.5000
vt 0.8611 0.0000 0.5000
vt 0.9167 0.0000 0.5000
vt 0.9722 0.0000 0.5000
vt 0.0278 0.0000 0.5000
vt -0.0278 0.0000 0.5000
vt 0.0833 0.0000 0.5000
vt 0.1389 0.0000 0.5000
vt 0.1944 0.0000 0.5000
vt 0.2500 0.0000 0.5000
vt 0.3056 0.0000 0.5000
vt 0.3611 0.0000 0.5000
vt 0.4167 0.0000 0.5000
vt 0.4722 0.0000 0.5000
vt 0.5278 0.0000 0.5000
vt 0.5833 0.0000 0.5000
vt 0.6389 0.0000 0.5000
vt 0.6944 0.0000 0.5000
vt 0.8056 0.0000 1.0000
vt 0.7500 0.0000 1.0000
vt 0.8611 0.0000 1.0000
vt 0.9167 0.0000 1.0000
vt 0.9722 0.0000 1.0000
vt 0.0278 0.0000 1.0000
vt -0.0278 0.0000 1.0000
vt 0.0833 0.0000 1.0000
vt 0.1389 0.0000 1.0000
vt 0.1944 0.0000 1.0000
vt 0.2500 0.0000 1.0000
vt 0.3056 0.0000 1.0000
vt 0.3611 0.0000 1.0000
vt 0.4167 0.0000 1.0000
vt 0.4722 0.0000 1.0000
vt 0.5278 0.0000 1.0000
vt 0.5833 0.0000 1.0000
vt 0.6389 0.0000 1.0000
vt 0.6944 0.0000 1.0000
vt 0.8056 0.2000 1.0000
vt 0.7500 0.2000 1.0000
vt 0.8611 0.2000 1.0000
vt 0.9167 0.2000 1.0000
vt 0.9722 0.2000 1.0000
vt 0.0278 0.2000 1.0000
vt -0.0278 0.2000 1.0000
vt 0.0833 0.2000 1.0000
vt 0.1389 0.2000 1.0000
vt 0.1944 0.2000 1.0000
vt 0.2500 0.2000 1.0000
vt 0.3056 0.2000 1.0000
vt 0.3611 0.2000 1.0000
vt 0.4167 0.2000 1.0000
vt 0.4722 0.2000 1.0000
vt 0.5278 0.2000 1.0000
vt 0.5833 0.2000 1.0000
vt 0.6389 0.2000 1.0000
vt 0.6944 0.2000 1.0000
vt 0.8056 0.4000 1.0000
vt 0.7500 0.4000 1.0000
vt 0.8611 0.4000 1.0000
vt 0.9167 0.4000 1.0000
vt 0.9722 0.4000 1.0000
vt 0.0278 0.4000 1.0000
vt -0.0278 0.4000 1.0000
vt 0.0833 0.4000 1.0000
vt 0.1389 0.4000 1.0000
vt 0.1944 0.4000 1.0000
vt 0.2500 0.4000 1.0000
vt 0.3056 0.4000 1.0000
vt 0.3611 0.4000 1.0000
vt 0.4167 0.4000 1.0000
vt 0.4722 0.4000 1.0000
vt 0.5278 0.4000 1.0000
vt 0.5833 0.4000 1.0000
vt 0.6389 0.4000 1.0000
vt 0.6944 0.4000 1.0000
vt 0.8056 0.6000 1.0000
vt 0.7500 0.6000 1.0000
vt 0.8611 0.6000 1.0000
vt 0.9167 0.6000 1.0000
vt 0.9722 0.6000 1.0000
vt 0.0278 0.6000 1.0000
vt -0.0278 0.6000 1.0000
vt 0.0833 0.6000 1.0000
vt 0.1389 0.6000 1.0000
vt 0.1944 0.6000 1.0000
vt 0.2500 0.6000 1.0000
vt 0.3056 0.6000 1.0000
vt 0.3611 0.6000 1.0000
vt 0.4167 0.6000 1.0000
vt 0.4722 0.6000 1.0000
vt 0.5278 0.6000 1.0000
vt 0.5833 0.6000 1.0000
vt 0.6389 0.6000 1.0000
vt 0.6944 0.6000 1.0000
vt 0.8056 0.8000 1.0000
vt 0.7500 0.8000 1.0000
vt 0.8611 0.8000 1.0000
vt 0.9167 0.8000 1.0000
vt 0.9722 0.8000 1.0000
vt 0.0278 0.8000 1.0000
vt -0.0278 0.8000 1.0000
vt 0.0833 0.8000 1.0000
vt 0.1389 0.8000 1.0000
vt 0.1944 0.8000 1.0000
vt 0.2500 0.8000 1.0000
vt 0.3056 0.8000 1.0000
vt 0.3611 0.8000 1.0000
vt 0.4167 0.8000 1.0000
vt 0.4722 0.8000 1.0000
vt 0.5278 0.8000 1.0000
vt 0.5833 0.8000 1.0000
vt 0.6389 0.8000 1.0000
vt 0.6944 0.8000 1.0000
vt 0.8056 1.0000 1.0000
vt 0.7500 1.0000 1.0000
vt 0.8611 1.0000 1.0000
vt 0.9167 1.0000 1.0000
vt 0.9722 1.0000 1.0000
vt 0.0278 1.0000 1.0000
vt -0.0278 1.0000 1.0000
vt 0.0833 1.0000 1.0000
vt 0.1389 1.0000 1.0000
vt 0.1944 1.0000 1.0000
vt 0.2500 1.0000 1.0000
vt 0.3056 1.0000 1.0000
vt 0.3611 1.0000 1.0000
vt 0.4167 1.0000 1.0000
vt 0.4722 1.0000 1.0000
vt 0.5278 1.0000 1.0000
vt 0.5833 1.0000 1.0000
vt 0.6389 1.0000 1.0000
vt 0.6944 1.0000 1.0000
vt 0.8056 1.0000 0.5000
vt 0.7500 1.0000 0.5000
vt 0.8611 1.0000 0.5000
vt 0.9167 1.0000 0.5000
vt 0.9722 1.0000 0.5000
vt 0.0278 1.0000 0.5000
vt -0.0278 1.0000 0.5000
vt 0.0833 1.0000 0.5000
vt 0.1389 1.0000 0.5000
vt 0.1944 1.0000 0.5000
vt 0.2500 1.0000 0.5000
vt 0.3056 1.0000 0.5000
vt 0.3611 1.0000 0.5000
vt 0.4167 1.0000 0.5000
vt 0.4722 1.0000 0.5000
vt 0.5278 1.0000 0.5000
vt 0.5833 1.0000 0.5000
vt 0.6389 1.0000 0.5000
vt 0.6944 1.0000 0.5000
vt 0.5000 1.0000 0.0000
# 154 texture coords

o Saco
g Saco
usemtl 01___Default
s 1
f 1/1/1 2/2/2 3/3/3 
f 1/1/1 4/4/4 2/2/2 
f 1/1/1 5/5/5 4/4/4 
f 1/1/1 6/6/6 5/5/5 
f 1/1/1 7/7/7 6/8/6 
f 1/1/1 8/9/8 7/7/7 
f 1/1/1 9/10/9 8/9/8 
f 1/1/1 10/11/10 9/10/9 
f 1/1/1 11/12/11 10/11/10 
f 1/1/1 12/13/12 11/12/11 
f 1/1/1 13/14/13 12/13/12 
f 1/1/1 14/15/14 13/14/13 
f 1/1/1 15/16/15 14/15/14 
f 1/1/1 16/17/16 15/16/15 
f 1/1/1 17/18/17 16/17/16 
f 1/1/1 18/19/18 17/18/17 
f 1/1/1 19/20/19 18/19/18 
f 1/1/1 3/3/3 19/20/19 
f 3/3/3 2/2/2 20/21/20 21/22/21 
f 2/2/2 4/4/4 22/23/22 20/21/20 
f 4/4/4 5/5/5 23/24/23 22/23/22 
f 5/5/5 6/6/6 24/25/24 23/24/23 
f 6/8/6 7/7/7 25/26/25 24/27/24 
f 7/7/7 8/9/8 26/28/26 25/26/25 
f 8/9/8 9/10/9 27/29/27 26/28/26 
f 9/10/9 10/11/10 28/30/28 27/29/27 
f 10/11/10 11/12/11 29/31/29 28/30/28 
f 11/12/11 12/13/12 30/32/30 29/31/29 
f 12/13/12 13/14/13 31/33/31 30/32/30 
f 13/14/13 14/15/14 32/34/32 31/33/31 
f 14/15/14 15/16/15 33/35/33 32/34/32 
f 15/16/15 16/17/16 34/36/34 33/35/33 
f 16/17/16 17/18/17 35/37/35 34/36/34 
f 17/18/17 18/19/18 36/38/36 35/37/35 
f 18/19/18 19/20/19 37/39/37 36/38/36 
f 19/20/19 3/3/3 21/22/21 37/39/37 
s 8
f 21/22/21 20/21/20 38/40/38 39/41/39 
f 20/21/20 22/23/22 40/42/40 38/40/38 
f 22/23/22 23/24/23 41/43/41 40/42/40 
f 23/24/23 24/25/24 42/44/42 41/43/41 
f 24/27/24 25/26/25 43/45/43 42/46/42 
f 25/26/25 26/28/26 44/47/44 43/45/43 
f 26/28/26 27/29/27 45/48/45 44/47/44 
f 27/29/27 28/30/28 46/49/46 45/48/45 
f 28/30/28 29/31/29 47/50/47 46/49/46 
f 29/31/29 30/32/30 48/51/48 47/50/47 
f 30/32/30 31/33/31 49/52/49 48/51/48 
f 31/33/31 32/34/32 50/53/50 49/52/49 
f 32/34/32 33/35/33 51/54/51 50/53/50 
f 33/35/33 34/36/34 52/55/52 51/54/51 
f 34/36/34 35/37/35 53/56/53 52/55/52 
f 35/37/35 36/38/36 54/57/54 53/56/53 
f 36/38/36 37/39/37 55/58/55 54/57/54 
f 37/39/37 21/22/21 39/41/39 55/58/55 
f 39/41/39 38/40/38 56/59/38 57/60/39 
f 38/40/38 40/42/40 58/61/40 56/59/38 
f 40/42/40 41/43/41 59/62/41 58/61/40 
f 41/43/41 42/44/42 60/63/42 59/62/41 
f 42/46/42 43/45/43 61/64/43 60/65/42 
f 43/45/43 44/47/44 62/66/44 61/64/43 
f 44/47/44 45/48/45 63/67/45 62/66/44 
f 45/48/45 46/49/46 64/68/46 63/67/45 
f 46/49/46 47/50/47 65/69/47 64/68/46 
f 47/50/47 48/51/48 66/70/48 65/69/47 
f 48/51/48 49/52/49 67/71/49 66/70/48 
f 49/52/49 50/53/50 68/72/50 67/71/49 
f 50/53/50 51/54/51 69/73/51 68/72/50 
f 51/54/51 52/55/52 70/74/52 69/73/51 
f 52/55/52 53/56/53 71/75/53 70/74/52 
f 53/56/53 54/57/54 72/76/54 71/75/53 
f 54/57/54 55/58/55 73/77/55 72/76/54 
f 55/58/55 39/41/39 57/60/39 73/77/55 
f 57/60/39 56/59/38 74/78/38 75/79/39 
f 56/59/38 58/61/40 76/80/40 74/78/38 
f 58/61/40 59/62/41 77/81/41 76/80/40 
f 59/62/41 60/63/42 78/82/42 77/81/41 
f 60/65/42 61/64/43 79/83/43 78/84/42 
f 61/64/43 62/66/44 80/85/44 79/83/43 
f 62/66/44 63/67/45 81/86/45 80/85/44 
f 63/67/45 64/68/46 82/87/46 81/86/45 
f 64/68/46 65/69/47 83/88/47 82/87/46 
f 65/69/47 66/70/48 84/89/48 83/88/47 
f 66/70/48 67/71/49 85/90/49 84/89/48 
f 67/71/49 68/72/50 86/91/50 85/90/49 
f 68/72/50 69/73/51 87/92/51 86/91/50 
f 69/73/51 70/74/52 88/93/52 87/92/51 
f 70/74/52 71/75/53 89/94/53 88/93/52 
f 71/75/53 72/76/54 90/95/54 89/94/53 
f 72/76/54 73/77/55 91/96/55 90/95/54 
f 73/77/55 57/60/39 75/79/39 91/96/55 
f 75/79/39 74/78/38 92/97/38 93/98/39 
f 74/78/38 76/80/40 94/99/40 92/97/38 
f 76/80/40 77/81/41 95/100/41 94/99/40 
f 77/81/41 78/82/42 96/101/42 95/100/41 
f 78/84/42 79/83/43 97/102/43 96/103/42 
f 79/83/43 80/85/44 98/104/44 97/102/43 
f 80/85/44 81/86/45 99/105/45 98/104/44 
f 81/86/45 82/87/46 100/106/46 99/105/45 
f 82/87/46 83/88/47 101/107/47 100/106/46 
f 83/88/47 84/89/48 102/108/48 101/107/47 
f 84/89/48 85/90/49 103/109/49 102/108/48 
f 85/90/49 86/91/50 104/110/50 103/109/49 
f 86/91/50 87/92/51 105/111/51 104/110/50 
f 87/92/51 88/93/52 106/112/52 105/111/51 
f 88/93/52 89/94/53 107/113/53 106/112/52 
f 89/94/53 90/95/54 108/114/54 107/113/53 
f 90/95/54 91/96/55 109/115/55 108/114/54 
f 91/96/55 75/79/39 93/98/39 109/115/55 
f 93/98/39 92/97/38 110/116/56 111/117/57 
f 92/97/38 94/99/40 112/118/58 110/116/56 
f 94/99/40 95/100/41 113/119/59 112/118/58 
f 95/100/41 96/101/42 114/120/60 113/119/59 
f 96/103/42 97/102/43 115/121/61 114/122/60 
f 97/102/43 98/104/44 116/123/62 115/121/61 
f 98/104/44 99/105/45 117/124/63 116/123/62 
f 99/105/45 100/106/46 118/125/64 117/124/63 
f 100/106/46 101/107/47 119/126/65 118/125/64 
f 101/107/47 102/108/48 120/127/66 119/126/65 
f 102/108/48 103/109/49 121/128/67 120/127/66 
f 103/109/49 104/110/50 122/129/68 121/128/67 
f 104/110/50 105/111/51 123/130/69 122/129/68 
f 105/111/51 106/112/52 124/131/70 123/130/69 
f 106/112/52 107/113/53 125/132/71 124/131/70 
f 107/113/53 108/114/54 126/133/72 125/132/71 
f 108/114/54 109/115/55 127/134/73 126/133/72 
f 109/115/55 93/98/39 111/117/57 127/134/73 
s 1
f 111/117/57 110/116/56 128/135/74 129/136/75 
f 110/116/56 112/118/58 130/137/76 128/135/74 
f 112/118/58 113/119/59 131/138/77 130/137/76 
f 113/119/59 114/120/60 132/139/78 131/138/77 
f 114/122/60 115/121/61 133/140/79 132/141/78 
f 115/121/61 116/123/62 134/142/80 133/140/79 
f 116/123/62 117/124/63 135/143/81 134/142/80 
f 117/124/63 118/125/64 136/144/82 135/143/81 
f 118/125/64 119/126/65 137/145/83 136/144/82 
f 119/126/65 120/127/66 138/146/84 137/145/83 
f 120/127/66 121/128/67 139/147/85 138/146/84 
f 121/128/67 122/129/68 140/148/86 139/147/85 
f 122/129/68 123/130/69 141/149/87 140/148/86 
f 123/130/69 124/131/70 142/150/88 141/149/87 
f 124/131/70 125/132/71 143/151/89 142/150/88 
f 125/132/71 126/133/72 144/152/90 143/151/89 
f 126/133/72 127/134/73 145/153/91 144/152/90 
f 127/134/73 111/117/57 129/136/75 145/153/91 
f 146/154/92 129/136/75 128/135/74 
f 146/154/92 128/135/74 130/137/76 
f 146/154/92 130/137/76 131/138/77 
f 146/154/92 131/138/77 132/139/78 
f 146/154/92 132/141/78 133/140/79 
f 146/154/92 133/140/79 134/142/80 
f 146/154/92 134/142/80 135/143/81 
f 146/154/92 135/143/81 136/144/82 
f 146/154/92 136/144/82 137/145/83 
f 146/154/92 137/145/83 138/146/84 
f 146/154/92 138/146/84 139/147/85 
f 146/154/92 139/147/85 140/148/86 
f 146/154/92 140/148/86 141/149/87 
f 146/154/92 141/149/87 142/150/88 
f 146/154/92 142/150/88 143/151/89 
f 146/154/92 143/151/89 144/152/90 
f 146/154/92 144/152/90 145/153/91 
f 146/154/92 145/153/91 129/136/75 
# 126 polygons - 36 triangles

